<svg id="Layer_1" data-name="Layer 1" xmlns="http://www.w3.org/2000/svg" viewBox="0 0 221.37 320.71"><defs><style>.cls-1{fill:#b0a08b;}.cls-2{fill:#c8852a;stroke:#c8852a;stroke-miterlimit:10;}</style></defs><title>reross-quartercircle2</title><path class="cls-1" d="M214.7,6.68l-.2,307.51-183.81-.12A209.32,209.32,0,0,1,7,216.91C7.09,101.67,99.81,8.14,214.7,6.68M221.18.12,214.62.2A216.93,216.93,0,0,0,24.94,317.06l1.81,3.49h3.93l183.81.12H221V314.2l.2-307.52V.12Z"/><path class="cls-2" d="M47.51,241.83l-.43-17a8.09,8.09,0,0,1,8.06-8.55,8.2,8.2,0,0,1,7.93,5.12l12.74-5.65.12,4.85-12.27,5.48.27,10.65,12.4-.31.12,4.69ZM59.5,225a4.14,4.14,0,0,0-8.27.21l.3,11.85,8.27-.21Z"/><path class="cls-2" d="M48.1,202.62l4.9-25,4,.8-4,20.36,8.12,1.59,3.93-20.05,4.06.8-3.93,20,8.11,1.59,4-20.36,4.06.79-4.89,25Z"/><path class="cls-2" d="M57.44,163.8l6.86-15.57a8.08,8.08,0,0,1,10.93-4.31,8.18,8.18,0,0,1,5,8l13.94.31-2,4.44-13.43-.27-4.3,9.75,11.35,5-1.89,4.29Zm18-10.14a4.14,4.14,0,0,0-7.57-3.33l-4.78,10.84,7.57,3.33Z"/><path class="cls-2" d="M85.34,138.39a15,15,0,0,1-2.94-20.94c5.27-7.08,13.78-8.38,20.86-3.1a15.07,15.07,0,0,1,3,20.87C101,142.3,92.43,143.67,85.34,138.39Zm15.07-20.22c-4.73-3.51-11.12-2.92-14.63,1.8a10.66,10.66,0,0,0,17.09,12.73C106.39,128,105.12,121.69,100.41,118.17Z"/><path class="cls-2" d="M115.42,116.75l12.42-10.93a4.14,4.14,0,0,0-5.47-6.21l-6.56,5.78a7.92,7.92,0,0,1-11.67-.75A8.15,8.15,0,0,1,104.88,93l11.29-9.93,2.73,3.1L108,95.76a4.13,4.13,0,0,0,5.46,6.21L120,96.19a7.94,7.94,0,0,1,11.67.75,8.2,8.2,0,0,1-.75,11.67l-12.77,11.24Z"/><path class="cls-2" d="M140.48,95.83l14.43-8.1a4.13,4.13,0,1,0-4-7.21l-7.63,4.28A7.93,7.93,0,0,1,132,81.64a8.15,8.15,0,0,1,3.16-11.26L148.23,63l2,3.61-12.69,7.12A4.13,4.13,0,0,0,141.62,81l7.63-4.28a7.94,7.94,0,0,1,11.26,3.16,8.21,8.21,0,0,1-3.16,11.26l-14.84,8.34Z"/></svg>