<?xml version="1.0" encoding="utf-8"?>
<!-- Generator: Adobe Illustrator 22.1.0, SVG Export Plug-In . SVG Version: 6.00 Build 0)  -->
<svg version="1.1" id="Layer_1" xmlns="http://www.w3.org/2000/svg" xmlns:xlink="http://www.w3.org/1999/xlink" x="0px" y="0px"
	 viewBox="0 0 221.8 322" style="enable-background:new 0 0 221.8 322;" xml:space="preserve">
<style type="text/css">
	.st0{fill:#B0A08B;}
	.st1{fill:#EFDDBA;}
	.st2{fill:#EFDDBA;stroke:#000000;stroke-width:6.48;stroke-miterlimit:10;}
	.st3{fill:none;stroke:#ED1C24;stroke-width:9;stroke-miterlimit:10;}
	.st4{fill:#ED1C24;}
	.st5{fill:#EFDDBA;stroke:#C98524;stroke-width:6.48;stroke-miterlimit:10;}
	.st6{fill:#006DB7;}
	.st7{clip-path:url(#SVGID_2_);}
	.st8{clip-path:url(#SVGID_6_);}
	.st9{fill:none;stroke:#000000;stroke-width:6.48;stroke-miterlimit:10;}
	.st10{clip-path:url(#SVGID_10_);fill:#16394B;}
	.st11{clip-path:url(#SVGID_10_);fill:#EFDDBA;stroke:#7E8E86;stroke-width:6.48;stroke-miterlimit:10;}
	.st12{clip-path:url(#SVGID_10_);fill:#16394B;stroke:#7E8E86;stroke-width:6.48;stroke-miterlimit:10;}
	.st13{clip-path:url(#SVGID_10_);}
	.st14{fill:#16394B;stroke:#C98524;stroke-width:6.48;stroke-miterlimit:10;}
	.st15{clip-path:url(#SVGID_10_);fill:#16394B;stroke:#C98524;stroke-width:6.48;stroke-miterlimit:10;}
	.st16{fill:#F15A29;}
	.st17{opacity:0.53;fill:#16394B;stroke:#F15A29;stroke-width:6.48;stroke-miterlimit:10;}
	.st18{fill:none;stroke:#F15A29;stroke-width:6.48;stroke-miterlimit:10;}
	.st19{clip-path:url(#SVGID_10_);fill:#006DB7;}
	.st20{fill:#C98524;}
	.st21{clip-path:url(#SVGID_10_);fill:none;stroke:#7E8E86;stroke-width:6.48;stroke-miterlimit:10;}
	.st22{clip-path:url(#SVGID_10_);fill:#EFDDBA;stroke:#C98524;stroke-width:6.48;stroke-miterlimit:10;}
	.st23{clip-path:url(#SVGID_10_);fill:#EFDDBA;stroke:#000000;stroke-width:6.48;stroke-miterlimit:10;}
	.st24{fill:#16394B;stroke:#F15A29;stroke-width:6.48;stroke-miterlimit:10;}
	.st25{fill:#7E8E86;}
	.st26{clip-path:url(#SVGID_12_);fill:#0C2030;}
	.st27{clip-path:url(#SVGID_12_);fill:#EFDDBA;stroke:#9E907D;stroke-width:6.48;stroke-miterlimit:10;}
	.st28{clip-path:url(#SVGID_12_);fill:#0C2030;stroke:#9E907D;stroke-width:6.48;stroke-miterlimit:10;}
	.st29{clip-path:url(#SVGID_12_);}
	.st30{fill:#0C2030;stroke:#C8852A;stroke-width:6.48;stroke-miterlimit:10;}
	.st31{clip-path:url(#SVGID_12_);fill:#0C2030;stroke:#BC2A31;stroke-width:6.48;stroke-miterlimit:10;}
	.st32{clip-path:url(#SVGID_12_);fill:#0C2030;stroke:#C8852A;stroke-width:6.48;stroke-miterlimit:10;}
	.st33{fill:#9E907D;}
	.st34{opacity:0.69;fill:#BC2A31;}
	.st35{fill:none;stroke:#BC2A31;stroke-width:6.48;stroke-miterlimit:10;}
	.st36{clip-path:url(#SVGID_12_);fill:#006DB7;}
	.st37{fill:#C8852A;}
	.st38{clip-path:url(#SVGID_12_);fill:none;stroke:#9E907D;stroke-width:6.48;stroke-miterlimit:10;}
	.st39{clip-path:url(#SVGID_12_);fill:#EFDDBA;stroke:#C98524;stroke-width:6.48;stroke-miterlimit:10;}
	.st40{clip-path:url(#SVGID_12_);fill:#EFDDBA;stroke:#000000;stroke-width:6.48;stroke-miterlimit:10;}
	.st41{fill:#0C2030;stroke:#BC2A31;stroke-width:6.48;stroke-miterlimit:10;}
	.st42{clip-path:url(#SVGID_14_);fill:#060D1C;}
	.st43{clip-path:url(#SVGID_14_);fill:#EFDDBA;stroke:#B0A08B;stroke-width:6.48;stroke-miterlimit:10;}
	.st44{clip-path:url(#SVGID_14_);fill:#060D1C;stroke:#BC2A31;stroke-width:6.48;stroke-miterlimit:10;}
	.st45{clip-path:url(#SVGID_14_);}
	.st46{fill:#060D1C;stroke:#C8852A;stroke-width:6.48;stroke-miterlimit:10;}
	.st47{clip-path:url(#SVGID_14_);fill:#060D1C;stroke:#B0A08B;stroke-width:14;stroke-miterlimit:10;}
	.st48{clip-path:url(#SVGID_14_);fill:#060D1C;stroke:#C8852A;stroke-width:6.48;stroke-miterlimit:10;}
	.st49{opacity:0.66;fill:#900300;stroke:#BC2A31;stroke-width:6.48;stroke-miterlimit:10;}
	.st50{clip-path:url(#SVGID_14_);fill:#006DB7;}
	.st51{clip-path:url(#SVGID_14_);fill:#060D1C;stroke:#B0A08B;stroke-width:6.48;stroke-miterlimit:10;}
	.st52{fill:#C8852A;stroke:#C8852A;stroke-miterlimit:10;}
	.st53{clip-path:url(#SVGID_14_);fill:none;stroke:#B0A08B;stroke-width:12;stroke-miterlimit:10;}
	.st54{clip-path:url(#SVGID_14_);fill:#EFDDBA;stroke:#C98524;stroke-width:6.48;stroke-miterlimit:10;}
	.st55{clip-path:url(#SVGID_14_);fill:#EFDDBA;stroke:#000000;stroke-width:6.48;stroke-miterlimit:10;}
	.st56{clip-path:url(#SVGID_14_);fill:#EFDDBA;stroke:#B0A08B;stroke-width:14;stroke-miterlimit:10;}
	.st57{fill:#060D1C;stroke:#BC2A31;stroke-width:6.48;stroke-miterlimit:10;}
	.st58{display:none;fill:none;stroke:#066EB7;stroke-miterlimit:10;}
	.st59{clip-path:url(#SVGID_16_);fill:#060D1C;}
	.st60{clip-path:url(#SVGID_16_);fill:#EFDDBA;stroke:#B0A08B;stroke-width:6.48;stroke-miterlimit:10;}
	.st61{clip-path:url(#SVGID_16_);fill:#060D1C;stroke:#BC2A31;stroke-width:6.48;stroke-miterlimit:10;}
	.st62{clip-path:url(#SVGID_16_);}
	.st63{clip-path:url(#SVGID_16_);fill:#060D1C;stroke:#B0A08B;stroke-width:6.48;stroke-miterlimit:10;}
	.st64{clip-path:url(#SVGID_16_);fill:#060D1C;stroke:#C8852A;stroke-width:6.48;stroke-miterlimit:10;}
	.st65{clip-path:url(#SVGID_16_);fill:#006DB7;}
	.st66{clip-path:url(#SVGID_16_);fill:none;stroke:#B0A08B;stroke-width:6.48;stroke-miterlimit:10;}
	.st67{clip-path:url(#SVGID_16_);fill:#EFDDBA;stroke:#C98524;stroke-width:6.48;stroke-miterlimit:10;}
	.st68{clip-path:url(#SVGID_16_);fill:#EFDDBA;stroke:#000000;stroke-width:6.48;stroke-miterlimit:10;}
</style>
<g>
	<path class="st0" d="M214.9,7.7l-0.2,307.5l-183.8-0.1C15.8,286,7.2,253,7.3,217.9C7.3,102.7,100.1,9.1,214.9,7.7 M221.4,1.1
		l-6.6,0.1c-29,0.4-57,6.4-83.4,17.8C106,30,83.1,45.7,63.4,65.6c-19.6,19.9-35.1,42.9-45.8,68.6C6.5,160.7,0.8,188.9,0.8,217.9
		c0,34.8,8.4,69.4,24.4,100.2l1.8,3.5l3.9,0l183.8,0.1l6.5,0l0-6.5l0.2-307.5L221.4,1.1L221.4,1.1z"/>
</g>
<g>
	<path class="st37" d="M47.8,242.8l-0.4-17c-0.1-5,3.5-8.4,8.1-8.6c3.5-0.1,6.6,1.9,7.9,5.1l12.7-5.6l0.1,4.8l-12.3,5.5l0.3,10.7
		l12.4-0.3l0.1,4.7L47.8,242.8z M59.7,226c-0.1-2.5-1.8-4.1-4.2-4c-2.5,0.1-4.1,1.8-4,4.2l0.3,11.8l8.3-0.2L59.7,226z"/>
	<path class="st37" d="M48.4,203.6l4.9-25l4.1,0.8l-4,20.4l8.1,1.6l3.9-20.1l4.1,0.8l-3.9,20.1l8.1,1.6l4-20.4l4.1,0.8l-4.9,25
		L48.4,203.6z"/>
	<path class="st37" d="M57.7,164.8l6.9-15.6c2-4.6,6.8-6.1,10.9-4.3c3.2,1.4,5.2,4.6,5,8l13.9,0.3l-2,4.4L79,157.4l-4.3,9.7l11.4,5
		l-1.9,4.3L57.7,164.8z M75.7,154.7c1-2.3,0.1-4.5-2.1-5.5c-2.3-1-4.5-0.1-5.4,2.1l-4.8,10.8l7.6,3.3L75.7,154.7z"/>
	<path class="st37" d="M85.6,139.4c-6.6-4.9-7.8-14.4-2.9-20.9c5.3-7.1,13.8-8.4,20.9-3.1c6.5,4.8,7.8,14.4,3,20.9
		C101.2,143.3,92.7,144.7,85.6,139.4z M100.7,119.2c-4.7-3.5-11.1-2.9-14.6,1.8c-3.5,4.7-2.3,11.1,2.4,14.6
		c4.7,3.5,11.2,2.9,14.7-1.9C106.6,129,105.4,122.7,100.7,119.2z"/>
	<path class="st37" d="M115.7,117.7l12.4-10.9c1.8-1.6,2-4,0.4-5.8c-1.6-1.9-4-2-5.8-0.4l-6.6,5.8c-3.7,3.3-8.5,2.8-11.7-0.7
		c-2.9-3.3-3-8.4,0.7-11.7l11.3-9.9l2.7,3.1l-10.9,9.6c-1.9,1.6-2,4-0.4,5.8c1.6,1.9,4,2,5.8,0.4l6.6-5.8c3.7-3.3,8.5-2.8,11.7,0.7
		c2.8,3.2,3,8.4-0.7,11.7l-12.8,11.2L115.7,117.7z"/>
	<path class="st37" d="M140.7,96.8l14.4-8.1c2.1-1.2,2.8-3.5,1.6-5.6c-1.2-2.2-3.5-2.8-5.6-1.6l-7.6,4.3c-4.3,2.4-8.9,1-11.3-3.2
		c-2.1-3.8-1.1-8.8,3.2-11.3l13.1-7.4l2,3.6l-12.7,7.1c-2.1,1.2-2.8,3.5-1.6,5.6c1.2,2.1,3.5,2.8,5.6,1.6l7.6-4.3
		c4.3-2.4,8.9-1,11.3,3.2c2.1,3.7,1.1,8.8-3.2,11.3l-14.8,8.3L140.7,96.8z"/>
</g>
</svg>
