<svg id="Layer_1" data-name="Layer 1" xmlns="http://www.w3.org/2000/svg" viewBox="0 0 320.25 320.42"><defs><style>.cls-1,.cls-2{fill:#ed1c24;stroke:#ed1c24;stroke-miterlimit:10;}.cls-1{stroke-width:0.81px;}.cls-2{stroke-width:0.77px;}</style></defs><title>background_analysis</title><path class="cls-1" d="M136.25,144.93a45.69,45.69,0,1,1,45.69-45.69A45.74,45.74,0,0,1,136.25,144.93Zm0-90.65a45,45,0,1,0,45,45A45,45,0,0,0,136.25,54.28Z"/><path class="cls-1" d="M136.25,259.23a45.69,45.69,0,1,1,45.69-45.68A45.74,45.74,0,0,1,136.25,259.23Zm0-90.64a45,45,0,1,0,45,45A45,45,0,0,0,136.25,168.59Z"/><path class="cls-1" d="M198,223.57a45.69,45.69,0,1,1,45.69-45.69A45.74,45.74,0,0,1,198,223.57Zm0-90.65a45,45,0,1,0,45,45A45,45,0,0,0,198,132.92Z"/><path class="cls-1" d="M211.6,178.25a45.69,45.69,0,1,1,45.69-45.69A45.74,45.74,0,0,1,211.6,178.25Zm0-90.65a45,45,0,1,0,45,45A45,45,0,0,0,211.6,87.6Z"/><rect class="cls-1" x="135.89" y="27.67" width="0.73" height="263.78"/><rect class="cls-1" x="152.39" y="103.62" width="0.73" height="177.85"/><rect class="cls-1" x="197.31" y="39.23" width="0.73" height="231.73"/><rect class="cls-2" x="211.07" y="118.57" width="0.73" height="123.43"/><rect class="cls-1" x="142.34" y="132.19" width="134.78" height="0.73"/><rect class="cls-1" x="75.49" y="258.5" width="152.2" height="0.73"/><rect class="cls-1" x="90.66" y="39.23" width="0.73" height="234.35"/><rect class="cls-1" x="76.64" y="53.86" width="134.78" height="0.73"/></svg>