<svg id="Layer_1" data-name="Layer 1" xmlns="http://www.w3.org/2000/svg" viewBox="0 0 368 408.83"><defs><style>.cls-1{fill:#c8852a;}.cls-2{fill:none;stroke:#b0a08b;stroke-miterlimit:10;stroke-width:6.48px;}</style></defs><title>reross-quartercircle</title><path class="cls-1" d="M100.5,280.16l-.43-17a8.09,8.09,0,0,1,8.06-8.55,8.17,8.17,0,0,1,7.92,5.13l12.75-5.65.12,4.85-12.27,5.48.27,10.65,12.4-.31.12,4.69Zm12-16.84a4.14,4.14,0,0,0-8.27.21l.3,11.84,8.26-.21Z"/><path class="cls-1" d="M101.09,241l4.9-25,4.05.8-4,20.37,8.12,1.59,3.93-20.06,4.06.8-3.94,20.05,8.12,1.59,4-20.36,4.06.79-4.89,25Z"/><path class="cls-1" d="M110.43,202.13l6.86-15.57a8.09,8.09,0,0,1,10.93-4.31,8.2,8.2,0,0,1,5,8l13.94.32-2,4.44-13.43-.28-4.3,9.75,11.35,5-1.89,4.3Zm18-10.13a4.14,4.14,0,0,0-7.57-3.34l-4.78,10.85,7.57,3.33Z"/><path class="cls-1" d="M138.33,176.72a15,15,0,0,1-2.94-20.93c5.27-7.08,13.78-8.38,20.85-3.11a15.06,15.06,0,0,1,3,20.87C154,180.63,145.41,182,138.33,176.72Zm15.06-20.21c-4.72-3.52-11.11-2.92-14.62,1.79A10.67,10.67,0,0,0,155.86,171C159.37,166.32,158.11,160,153.39,156.51Z"/><path class="cls-1" d="M168.41,155.08l12.42-10.92a4.14,4.14,0,0,0-5.47-6.21l-6.56,5.77a7.93,7.93,0,0,1-11.67-.74,8.16,8.16,0,0,1,.74-11.67l11.29-9.93,2.73,3.11L161,134.1a4.13,4.13,0,0,0,5.46,6.21l6.57-5.78a7.92,7.92,0,0,1,11.67.75,8.19,8.19,0,0,1-.75,11.66l-12.77,11.24Z"/><path class="cls-1" d="M193.47,134.17l14.43-8.1a4.14,4.14,0,0,0-4.05-7.22l-7.63,4.29A7.93,7.93,0,0,1,185,120a8.15,8.15,0,0,1,3.16-11.26l13.1-7.37,2,3.61-12.69,7.13a4.13,4.13,0,0,0,4.05,7.21l7.63-4.29a7.94,7.94,0,0,1,11.26,3.16,8.22,8.22,0,0,1-3.16,11.27l-14.84,8.33Z"/><path class="cls-2" d="M270.81,355.65l-1.49-314.9C151.69,42.88,57.25,139.16,57.81,257.18a214.53,214.53,0,0,0,24.77,99.36Z"/></svg>